<?xml version="1.0" encoding="utf-8"?>
<!-- Generator: Adobe Illustrator 18.1.1, SVG Export Plug-In . SVG Version: 6.00 Build 0)  -->
<svg version="1.1" id="Layer_1" xmlns="http://www.w3.org/2000/svg" xmlns:xlink="http://www.w3.org/1999/xlink" x="0px" y="0px"
	 viewBox="0 90 612 612" enable-background="new 0 90 612 612" xml:space="preserve">
<g>
	<g>
		<g>
			<path fill="#909090" d="M306,90c169.3,0,306,136.7,306,306S475.3,702,306,702S0,565.3,0,396S136.7,90,306,90z"/>
		</g>
	</g>
	<g>
		<g>
			<path fill="#E4E4E4" d="M301.2,219.1c0,0,22-11.5,39.2,0c21,13.4,28.7,35.4,28.7,63.1c0,10.5-1,21-2.9,29.6
				c-1.9,8.6-1.9,17.2-2.9,22h91.8c15.3,0,28.7,10.5,31.6,25.8c2.9,13.4-2.9,24.9-12.4,31.6c7.6,5.7,13.4,15.3,13.4,25.8
				c0,12.4-6.7,23-17.2,27.7c3.8,4.8,5.7,11.5,5.7,18.2c0,15.3-11.5,28.7-25.8,30.6c2.9,5.7,4.8,12.4,3.8,19.1
				c-1.9,15.3-16.3,26.8-31.6,26.8H273.5c-17.2,0-33.5-11.5-33.5-28.7V392.2c0-1,0-1.9,0-1.9l0,0L307,283.2c1-1,1-1.9,1-2.9
				L301.2,219.1z"/>
		</g>
	</g>
	<g>
		<g>
			<path fill="#5B5B5B" d="M218,367.3c10.5,0,19.1,7.6,21,16.3c0,1,0,1.9,0,1.9v118.6v16.3c0,10.5-9.6,19.1-21,19.1h-72.7
				c-11.5,0-21-8.6-21-19.1V386.4c0-10.5,9.6-19.1,21-19.1H218z"/>
		</g>
	</g>
	<g>
		<g>
			<circle fill="#FFFFFF" cx="196" cy="506" r="14.3"/>
		</g>
	</g>
</g>
</svg>
